<svg xmlns="http://www.w3.org/2000/svg" width="37" height="38"><path data-name="Forma 1" d="M10.743 9.66l-5.206.01s-4.116.18-4.109 4.17v.11a3.286 3.286 0 00.008 5.43c.006.49.167 4.55 3.956 4.54 0 0 1.569.06 1.433 2.57l.016 9.92A1.311 1.311 0 008.187 38s4.657-.67 2.34-5.43c1.743-1.81-.749-2.86.243-5.82a7.463 7.463 0 001.341-2.92l.06-12.67a1.267 1.267 0 00-1.428-1.5zM34.6 12.21L34.58.64c0-1.51-1.28.17-1.28.17-6.04 9.43-18.544 8.69-18.544 8.69a1.077 1.077 0 00-1.239 1.27l.021 10.93a1.265 1.265 0 001.321 1.25c13.971-.02 18.751 8.82 18.751 8.82s1.11 1.36 1.03-.06l-.02-11.55a4.5 4.5 0 00-.02-7.95zm-13.756-1.55s8.216-1.15 12.2-7.33c-.004 0-1.544 7.22-12.2 7.33zm15.286 6.81a5.98 5.98 0 00-1.16-4.29s2.13 1.24 1.16 4.29z" fill="#fff" fill-rule="evenodd"/></svg>