<svg xmlns="http://www.w3.org/2000/svg" width="16" height="19"><path data-name="Forma 1" d="M12.628 10.12a14.641 14.641 0 002.41-3.87 14.318 14.318 0 00.5-1.45c.054-.2.111-.44.163-.71l.032-.17.037-.23a9.945 9.945 0 00.125-2.05 6.614 6.614 0 01-.031-.84c.014-.02.028-.03.041-.05a.3.3 0 00.105-.3.167.167 0 01-.028-.03.561.561 0 01.025-.25c.031-.13-.061-.2-.2-.16a.786.786 0 01-.293.06L15.48.04a.338.338 0 00-.273.18c-.01.01-.02.03-.029.04s-.39.06-.829.15a9.959 9.959 0 00-3.286 1.32 13.132 13.132 0 00-4.11 4.11 1.511 1.511 0 01-1.21.63 5.731 5.731 0 00-5.687 3.66.5.5 0 00.543.72c7.909-.15 8.63 4.7 8.6 6.65-.007.44.274.66.658.43 2.874-1.71 2.684-4.94 2.418-6.43a1.87 1.87 0 01.353-1.38zm-.89-2.18a1.612 1.612 0 01-1.978.29 1.541 1.541 0 01-.6-2.12 1.711 1.711 0 01.184-.25 1.611 1.611 0 011.978-.29 1.54 1.54 0 01.6 2.12 2.055 2.055 0 01-.184.25zM4.781 18.61a6.992 6.992 0 002.626-3.32c.17-.41-.063-.61-.441-.38a7.109 7.109 0 00-2.65 3.29c-.17.41.084.64.465.41zm-2.823.31a9.427 9.427 0 003.8-4.91c.157-.42-.079-.62-.463-.39a9.549 9.549 0 00-3.83 4.87c-.152.41.101.64.493.43zm-.509-2.89a6.989 6.989 0 002.625-3.32c.17-.41-.063-.61-.441-.37a7.094 7.094 0 00-2.649 3.28c-.171.41.081.64.465.41z" fill="#fc635e" fill-rule="evenodd"/></svg>