<svg xmlns="http://www.w3.org/2000/svg" width="22" height="25"><path data-name="Forma 1" d="M8.063 5.41a2.035 2.035 0 11-2.042 2.03 2.037 2.037 0 012.042-2.03zm4.438 8.31a1.305 1.305 0 11-1.309 1.31 1.312 1.312 0 011.308-1.31zm7.179-2.99C21.325 2.7 14.78-.98 7.52.18S.53 5.72.103 7.81c-.851 5.24 4.558 11.1 4.558 11.1L4.352 25h8.808l.674-2.8s.382.64 2.657.83 2-2.58 2-2.58 1.515-.67 1.515-1.17a2.237 2.237 0 00-.9-1.14 1.745 1.745 0 001.312-.23c.347-.41-.426-1.87-.426-1.87a2.935 2.935 0 001.889-.8c.704-.77-2.201-3.04-2.201-4.51zm-12.579 1.1l-.073-.81a4.409 4.409 0 01-.633-.23c-.24.21-.719.61-.719.61s-.082.05-.123.07-.8-.07-.8-.07L3.441 9.85v-.92s.5-.42.757-.64a3.314 3.314 0 01-.1-.63l-.991-.45-.265-.77.031-.13.847-1.84.9-.24.853.39a5.09 5.09 0 01.56-.38l-.084-1.02.655-.66 2.023-.16.655.65.063.78a5.917 5.917 0 01.754.28c.218-.18.657-.56.657-.56h.927l1.322 1.54v.92l-.805.69a3.7 3.7 0 01.071.57c.338.2 1.015.59 1.015.59l.235.89-1.015 1.75-.9.24-.79-.45c-.148.11-.307.21-.472.31.031.35.1 1.05.1 1.05l-.655.65-2.02.18zm8.241 5.16l-.574.15s-.337-.19-.507-.29a1.9 1.9 0 01-.3.2l.061.67-.419.42-1.3.12-.42-.42-.048-.52a2.7 2.7 0 01-.4-.15c-.155.14-.462.4-.462.4a.373.373 0 00-.078.04c-.026.01-.516-.04-.516-.04l-.841-1v-.59s.323-.27.485-.41a2.193 2.193 0 01-.066-.41c-.212-.09-.636-.29-.636-.29l-.17-.49.019-.08.543-1.18.576-.15s.364.16.547.25a3.68 3.68 0 01.359-.25l-.053-.66.419-.42 1.3-.1.42.42.04.5a3.658 3.658 0 01.484.18l.421-.36h.6l.848.99v.59s-.344.29-.515.44a2.2 2.2 0 01.044.37c.217.12.652.37.652.37l.15.58z" fill="#fff" fill-rule="evenodd"/></svg>