<svg xmlns="http://www.w3.org/2000/svg" width="33.093" height="39.03"><path data-name="Forma 1" d="M26.068 20.77a30.025 30.025 0 004.973-7.96 29.363 29.363 0 001.037-2.97c.11-.41.228-.91.336-1.46.025-.12.042-.23.065-.35.026-.15.053-.3.077-.46a20.266 20.266 0 00.257-4.21 13.635 13.635 0 01-.063-1.74.793.793 0 00.085-.1.609.609 0 00.216-.62s-.026-.02-.058-.04a1.243 1.243 0 01.053-.53c.062-.27-.126-.41-.421-.32a1.565 1.565 0 01-.6.11l-.07-.05a.65.65 0 00-.564.36.931.931 0 01-.059.08c-.032.05-.805.13-1.712.31a20.578 20.578 0 00-6.779 2.72 27.043 27.043 0 00-8.48 8.44 3.067 3.067 0 01-2.5 1.29A11.835 11.835 0 00.126 20.79a1.041 1.041 0 001.121 1.49c16.319-.3 17.806 9.65 17.747 13.65-.015.91.565 1.36 1.357.89 5.931-3.52 5.539-10.16 4.99-13.21a3.827 3.827 0 01.727-2.84zm-1.838-4.49a3.324 3.324 0 01-4.082.6 3.142 3.142 0 01-1.23-4.34 2.765 2.765 0 01.378-.51 3.337 3.337 0 014.083-.6 3.156 3.156 0 011.23 4.35 3.385 3.385 0 01-.379.5zM9.876 38.22c2.927-1.73 4.621-4.92 5.417-6.83.351-.84-.13-1.25-.91-.77a14.6 14.6 0 00-5.467 6.75c-.351.84.168 1.32.96.85zm-5.826.63c4.469-2.42 6.873-7.52 7.845-10.09.322-.85-.164-1.26-.957-.8-4.693 2.77-6.985 7.55-7.9 10.01-.318.85.204 1.32 1.012.88zm-1.049-5.93c2.927-1.73 4.62-4.91 5.416-6.82.352-.84-.13-1.25-.91-.77a14.615 14.615 0 00-5.467 6.75c-.351.84.172 1.31.961.84z" fill="#fff" fill-rule="evenodd"/></svg>