<svg xmlns="http://www.w3.org/2000/svg" width="40.093" height="38"><path data-name="Forma 1" d="M25.218 36.94a1.961 1.961 0 01-.769-1.28l-.26-1.66h-8.3l-.262 1.66a1.953 1.953 0 01-.767 1.28c-.694.51-1.243.95-.694 1.03.528.07 5.508 0 5.876 0s5.347.07 5.876 0c.542-.08-.006-.52-.7-1.03zM10.681 23.63c2.219-.02 2.495-.55 3.218-2.78 1.334-3.52 7.341.92 3.619 2.46s-9.056.34-6.837.32zM33.432.45c-1.077-.86-2.86-.44-3.984.96L18.065 17.59c-1.124 1.39-1.118 1.13-.042 1.99s.817.93 1.941-.46L33.346 4.55c1.124-1.39 1.166-3.23.086-4.1zm-2.927 1.94a6.729 6.729 0 00-.721-.64A2.591 2.591 0 0132.25.64a3.416 3.416 0 00-1.745 1.75zm7.975 3.53h-5.006l-2.211 2.41h6.415v19.25H2.396V8.33H22.92l1.7-2.41H1.593a1.606 1.606 0 00-1.6 1.61v23.26a1.6 1.6 0 001.6 1.6H38.48a1.6 1.6 0 001.6-1.6V7.53a1.606 1.606 0 00-1.6-1.61z" fill="#fc635e" fill-rule="evenodd"/></svg>