<svg xmlns="http://www.w3.org/2000/svg" width="23" height="21"><path data-name="Forma 1" d="M21.61 0H1.394a1.415 1.415 0 00-1.4 1.42v14.75a1.424 1.424 0 001.4 1.43H21.61a1.424 1.424 0 001.4-1.43V1.42A1.415 1.415 0 0021.61 0zm-.353 15.13H1.745V2h19.512v13.13zM16.779 21H6.262l2.645-2.73h5.226zm-6.36-14.9a.95.95 0 11-.937.95.941.941 0 01.937-.95zM14.2 9.17a.95.95 0 11-.938.95.948.948 0 01.938-.95zm3.739-3.32a.955.955 0 11-.937.96.949.949 0 01.937-.96zM4.725 10.59a.955.955 0 11-.938.96.949.949 0 01.938-.96zm9.423-.75l-3.689-3.18-6.026 4.75.312.58s5.284-4.35 5.636-4.54c.309.26 3.779 3.26 3.779 3.26l3.995-3.66-.432-.49s-3.201 2.94-3.575 3.28z" fill="#fff" fill-rule="evenodd"/></svg>