<svg xmlns="http://www.w3.org/2000/svg" width="22.969" height="21"><path data-name="Forma 1" d="M20.666 6.1h-5.16c-.224 0-.286-.14-.16-.33a5.429 5.429 0 00.668-3.68C15.881.58 15.559 0 15.114 0c-.73 0-1.789 1.58-2.862 3.14a16.436 16.436 0 01-5.047 4.22 6.7 6.7 0 01-.741.34L3.742 8.71a.64.64 0 00-.382.56v8.27a.8.8 0 00.354.63l1.172.68a2.232 2.232 0 00.76.22 5.692 5.692 0 012.738 1.05c.191.13.479.35.666.48a2.275 2.275 0 001.282.4h8.175a2.711 2.711 0 002.584-2.01c.047-.23.077-.6.12-.83l1.726-9.22a2.826 2.826 0 00.042-.83 2.375 2.375 0 00-2.313-2.01zm-18.5 1.81H.677a.687.687 0 00-.677.7v9.66a.693.693 0 00.677.7h1.489a.693.693 0 00.677-.7V8.61a.687.687 0 00-.677-.7z" fill="#fff" fill-rule="evenodd"/></svg>